PathFileType	4	(X/Y/Z)	/home/nbianco/projects/addbio/data/HamnerRunning2013/Processed/subject04//results/MarkerData/run500.trc
DataRate	CameraRate	NumFrames	NumMarkers	Units	OrigDataRate	OrigDataStartFrame	OrigNumFrames
100	100	10	41	m	100	163	187
Frame#	Time	C7			CLAV			LACR			LASI			LCAL			LFAradius			LFAsuperior			LFAulna			LLEL			LMEL			LPSI			LTB1			LTB2			LTB3			LTH1			LTH2			LTH3			LTOE			LUA1			LUA2			LUA3			RACR			RASI			RCAL			RFAradius			RFAsuperior			RFAulna			RLEL			RMEL			RMT5			RPSI			RTB1			RTB2			RTB3			RTH1			RTH2			RTH3			RTOE			RUA1			RUA2			RUA3		
		X1	Y1	Z1	X2	Y2	Z2	X3	Y3	Z3	X4	Y4	Z4	X5	Y5	Z5	X6	Y6	Z6	X7	Y7	Z7	X8	Y8	Z8	X9	Y9	Z9	X10	Y10	Z10	X11	Y11	Z11	X12	Y12	Z12	X13	Y13	Z13	X14	Y14	Z14	X15	Y15	Z15	X16	Y16	Z16	X17	Y17	Z17	X18	Y18	Z18	X19	Y19	Z19	X20	Y20	Z20	X21	Y21	Z21	X22	Y22	Z22	X23	Y23	Z23	X24	Y24	Z24	X25	Y25	Z25	X26	Y26	Z26	X27	Y27	Z27	X28	Y28	Z28	X29	Y29	Z29	X30	Y30	Z30	X31	Y31	Z31	X32	Y32	Z32	X33	Y33	Z33	X34	Y34	Z34	X35	Y35	Z35	X36	Y36	Z36	X37	Y37	Z37	X38	Y38	Z38	X39	Y39	Z39	X40	Y40	Z40	X41	Y41	Z41

164	1.89	1.1316	1.50166	-0.431685	1.23518	1.39984	-0.413167	1.16593	1.46646	-0.606969	1.15692	0.970914	-0.538685	1.12553	0.100268	-0.383065	1.16745	1.16	-0.663692	0.993531	1.20033	-0.701808	1.14106	1.09639	-0.684383	0.920526	1.24576	-0.684614	0.919813	1.22813	-0.593075	0.986591	1.02246	-0.45759	1.28264	0.342527	-0.462314	1.24109	0.27905	-0.491951	1.25473	0.211378	-0.425053	1.09745	0.828364	-0.608706	1.20741	0.734853	-0.592777	1.19108	0.602658	-0.56555	1.36222	0.0810466	-0.396917	1.06087	1.3865	-0.671245	0.977619	1.36721	-0.627513	0.96904	1.2977	-0.675484	1.2068	1.46428	-0.267169	1.16203	0.954262	-0.285767	0.669101	0.645692	-0.351072	1.24224	1.07231	-0.220237	1.12929	1.16204	-0.131143	1.21049	1.02339	-0.177149	1.05362	1.20982	-0.106258	0.999088	1.20723	-0.182766	0.524308	0.455336	-0.293144	0.985454	1.01331	-0.365281	0.87565	0.431462	-0.331595	0.790392	0.508162	-0.289803	0.714426	0.504916	-0.35097	1.09563	0.772359	-0.246518	1.11482	0.670799	-0.252655	1.03353	0.541042	-0.262034	0.553824	0.439601	-0.366699	1.14988	1.34615	-0.174694	1.08238	1.34716	-0.159388	1.09286	1.27362	-0.140514
165	1.9	1.13311	1.49791	-0.434437	1.23573	1.39363	-0.411424	1.17134	1.45904	-0.609535	1.15221	0.96581	-0.53683	1.07749	0.102932	-0.382386	1.18743	1.14663	-0.662042	1.01483	1.17941	-0.707866	1.16409	1.08183	-0.683585	0.940054	1.22207	-0.695114	0.934318	1.20522	-0.604044	0.982459	1.01876	-0.454599	1.26031	0.339639	-0.461894	1.21451	0.279559	-0.492515	1.21936	0.210677	-0.425141	1.08871	0.828693	-0.608538	1.1995	0.730434	-0.596488	1.18222	0.600512	-0.567053	1.31429	0.0781881	-0.393527	1.07436	1.36729	-0.676496	0.987478	1.34643	-0.640568	0.985788	1.27396	-0.683372	1.20315	1.45704	-0.264498	1.15869	0.94814	-0.285859	0.698097	0.641647	-0.348364	1.22199	1.05482	-0.210541	1.11069	1.15363	-0.132634	1.18543	1.00902	-0.167399	1.03543	1.20502	-0.111513	0.985934	1.20228	-0.190646	0.563819	0.444743	-0.287878	0.98228	1.00853	-0.36211	0.908	0.426681	-0.331034	0.823097	0.501918	-0.287794	0.7477	0.49997	-0.349866	1.10103	0.767937	-0.246178	1.12846	0.668537	-0.250171	1.05808	0.533393	-0.259279	0.590866	0.431236	-0.362658	1.13946	1.33829	-0.175692	1.06998	1.34066	-0.163961	1.07805	1.26769	-0.144514
166	1.91	1.13437	1.49582	-0.436017	1.23578	1.38898	-0.409284	1.17684	1.45316	-0.610543	1.14785	0.960173	-0.533472	1.02878	0.105019	-0.382976	1.20908	1.13555	-0.659392	1.03982	1.16129	-0.712382	1.18881	1.06956	-0.681978	0.963148	1.20053	-0.704553	0.950038	1.18393	-0.614606	0.979126	1.01578	-0.45125	1.23292	0.334339	-0.462363	1.18302	0.27776	-0.494125	1.18063	0.208018	-0.426538	1.08128	0.829494	-0.607888	1.18956	0.726166	-0.598399	1.16903	0.596699	-0.567141	1.2655	0.0768124	-0.392558	1.08986	1.35134	-0.679799	0.999832	1.32834	-0.652981	1.00488	1.25343	-0.689837	1.19962	1.45126	-0.262333	1.15496	0.943047	-0.285559	0.724463	0.634032	-0.345257	1.2007	1.04351	-0.202356	1.09093	1.14942	-0.133763	1.15938	1.00034	-0.160461	1.01639	1.20389	-0.116618	0.971383	1.20083	-0.197691	0.605793	0.427912	-0.283245	0.979648	1.00489	-0.358945	0.942698	0.422655	-0.331239	0.857438	0.495061	-0.286202	0.781884	0.492631	-0.348661	1.1068	0.765731	-0.245424	1.14339	0.669215	-0.247997	1.08505	0.529883	-0.25753	0.630256	0.417525	-0.359053	1.12879	1.33332	-0.176683	1.05744	1.33755	-0.169266	1.06224	1.2657	-0.148301
167	1.92	1.13472	1.49438	-0.436517	1.23514	1.3861	-0.406994	1.18251	1.44918	-0.61013	1.14424	0.955582	-0.53011	0.97963	0.107044	-0.384145	1.23182	1.1286	-0.65576	1.06738	1.14777	-0.714857	1.21486	1.06136	-0.679261	0.988338	1.18308	-0.711852	0.96665	1.16586	-0.623681	0.976682	1.0142	-0.448601	1.20098	0.325901	-0.463046	1.14741	0.272653	-0.49561	1.13906	0.203311	-0.427464	1.07593	0.829037	-0.607163	1.17779	0.72117	-0.598346	1.15172	0.59099	-0.566318	1.21623	0.075337	-0.392697	1.10484	1.34072	-0.681043	1.01331	1.31417	-0.662964	1.02485	1.238	-0.694432	1.19548	1.44777	-0.260724	1.15112	0.939567	-0.284426	0.74816	0.622699	-0.342868	1.17927	1.03897	-0.196515	1.07007	1.14976	-0.134194	1.13352	0.997736	-0.157213	0.996751	1.20737	-0.121405	0.955944	1.20343	-0.204005	0.649759	0.406768	-0.278716	0.977414	1.0029	-0.356796	0.979102	0.419723	-0.332056	0.89243	0.488016	-0.285313	0.816033	0.483349	-0.347303	1.11234	0.76559	-0.244278	1.15903	0.672767	-0.24624	1.11359	0.530962	-0.256705	0.671601	0.399293	-0.355214	1.11733	1.33218	-0.177445	1.04477	1.33867	-0.174986	1.04556	1.26826	-0.151853
168	1.93	1.13389	1.49313	-0.436619	1.23388	1.38511	-0.404667	1.18858	1.44745	-0.608939	1.14153	0.953716	-0.528696	0.930299	0.109533	-0.385411	1.25443	1.12725	-0.650942	1.09486	1.14002	-0.715159	1.24126	1.05889	-0.675127	1.01313	1.171	-0.716393	0.984121	1.15241	-0.63016	0.974953	1.01446	-0.447591	1.16553	0.316134	-0.463001	1.10935	0.265823	-0.49606	1.09552	0.198365	-0.427258	1.07194	0.827033	-0.60686	1.16533	0.71457	-0.597312	1.13187	0.584605	-0.565394	1.1665	0.0738791	-0.392665	1.11734	1.33572	-0.680832	1.02639	1.30416	-0.669549	1.04424	1.22813	-0.697131	1.19004	1.44713	-0.259579	1.14757	0.938025	-0.28264	0.769675	0.607466	-0.34195	1.15861	1.04113	-0.193139	1.04882	1.1547	-0.134372	1.10919	1.00108	-0.157474	0.97708	1.21549	-0.125968	0.940732	1.2098	-0.210223	0.695301	0.38318	-0.273807	0.975671	1.00281	-0.356414	1.01663	0.418392	-0.33333	0.926977	0.481067	-0.285316	0.849689	0.472568	-0.346229	1.11728	0.767076	-0.242968	1.17471	0.679209	-0.245157	1.14255	0.536489	-0.256772	0.714774	0.377577	-0.350689	1.10478	1.33522	-0.177904	1.03197	1.34396	-0.180904	1.02858	1.27514	-0.155236
169	1.94	1.13221	1.49256	-0.437056	1.23229	1.38613	-0.402103	1.19517	1.4481	-0.607501	1.13972	0.955199	-0.529994	0.881137	0.112881	-0.386752	1.27547	1.13211	-0.644617	1.11949	1.13799	-0.713617	1.26674	1.06301	-0.669326	1.03541	1.16434	-0.718348	1.00227	1.14431	-0.63346	0.973948	1.01629	-0.448431	1.12756	0.307546	-0.462027	1.06992	0.259788	-0.495512	1.05089	0.194941	-0.426633	1.06786	0.82451	-0.606954	1.15336	0.706556	-0.596079	1.11121	0.578961	-0.564901	1.11646	0.0728165	-0.392098	1.12754	1.33504	-0.680007	1.03851	1.2981	-0.672949	1.06213	1.22316	-0.698275	1.18309	1.44945	-0.258846	1.14474	0.938516	-0.280981	0.789789	0.588172	-0.342598	1.13939	1.04924	-0.191709	1.02836	1.16409	-0.135252	1.08736	1.00974	-0.160005	0.958103	1.22735	-0.130603	0.926636	1.21947	-0.216851	0.742257	0.358412	-0.268502	0.974715	1.00436	-0.357784	1.05464	0.419213	-0.334781	0.960403	0.474527	-0.286157	0.883091	0.4606	-0.345887	1.12184	0.770054	-0.241703	1.18981	0.688814	-0.244987	1.17076	0.54613	-0.257716	0.759929	0.353473	-0.345599	1.0914	1.34213	-0.178246	1.01931	1.35272	-0.186943	1.01216	1.28546	-0.158602
170	1.95	1.1304	1.49358	-0.438109	1.23068	1.38925	-0.398998	1.20208	1.45104	-0.605806	1.1388	0.959108	-0.533103	0.832471	0.117486	-0.388437	1.29386	1.14284	-0.636668	1.14013	1.14061	-0.710811	1.29019	1.07352	-0.661735	1.05454	1.16211	-0.718518	1.02041	1.14136	-0.63395	0.973909	1.01893	-0.450531	1.08779	0.301634	-0.460862	1.02915	0.256285	-0.494768	1.00576	0.193663	-0.426545	1.06282	0.822694	-0.606953	1.14198	0.698484	-0.594711	1.09021	0.574793	-0.564787	1.06643	0.0720318	-0.391277	1.13734	1.33696	-0.679032	1.05021	1.29575	-0.674041	1.07829	1.2221	-0.698386	1.17506	1.45439	-0.258542	1.14306	0.94096	-0.28035	0.809389	0.564745	-0.344394	1.12196	1.06206	-0.191572	1.00968	1.17744	-0.137565	1.06838	1.02272	-0.163243	0.940448	1.24173	-0.135631	0.913742	1.23238	-0.223799	0.790938	0.333117	-0.263367	0.974673	1.00696	-0.36005	1.09226	0.422445	-0.336232	0.99262	0.46868	-0.287611	0.916829	0.447575	-0.346255	1.12663	0.774954	-0.240618	1.20371	0.701814	-0.245842	1.19721	0.559484	-0.259503	0.807489	0.328106	-0.340648	1.07791	1.35214	-0.178825	1.00729	1.36401	-0.193031	0.997024	1.29803	-0.162114
171	1.96	1.12902	1.49663	-0.43952	1.22928	1.39433	-0.395381	1.20884	1.45597	-0.603468	1.13898	0.963436	-0.536604	0.784625	0.123973	-0.390695	1.30919	1.15835	-0.627395	1.1576	1.14646	-0.707249	1.31102	1.08925	-0.652426	1.07125	1.16311	-0.717834	1.03761	1.14256	-0.632828	0.975022	1.02173	-0.453028	1.04684	0.298701	-0.460427	0.986881	0.255869	-0.494638	0.960458	0.194434	-0.427269	1.05717	0.822139	-0.606452	1.13011	0.691924	-0.593036	1.068	0.572411	-0.564616	1.01667	0.0711028	-0.390557	1.14832	1.34045	-0.677823	1.0621	1.29682	-0.67373	1.09293	1.2242	-0.69794	1.16693	1.46124	-0.258623	1.1428	0.945132	-0.281148	0.829458	0.537294	-0.346851	1.10634	1.07816	-0.192355	0.993105	1.19379	-0.141326	1.05212	1.03887	-0.166176	0.924416	1.25759	-0.141217	0.901567	1.24844	-0.230628	0.841948	0.307765	-0.259221	0.975342	1.01024	-0.362141	1.12866	0.427797	-0.337804	1.02386	0.463537	-0.28948	0.951266	0.433511	-0.346916	1.13211	0.782469	-0.23983	1.21585	0.717921	-0.247668	1.22109	0.575965	-0.262036	0.857963	0.302621	-0.336688	1.06521	1.36428	-0.179937	0.99646	1.37706	-0.199005	0.983471	1.31191	-0.165859
172	1.97	1.12815	1.50143	-0.440792	1.22816	1.40098	-0.391717	1.21484	1.46257	-0.60026	1.14062	0.966334	-0.539838	0.738084	0.133083	-0.393523	1.32159	1.17726	-0.61737	1.17345	1.15461	-0.703214	1.32916	1.1087	-0.641709	1.08666	1.16651	-0.716941	1.05323	1.14657	-0.631444	0.977261	1.02453	-0.455427	1.00539	0.29864	-0.461088	0.943615	0.258497	-0.495427	0.915411	0.197254	-0.42852	1.05208	0.822683	-0.605468	1.11672	0.687642	-0.591131	1.04369	0.572296	-0.564098	0.967271	0.0697782	-0.390121	1.16025	1.3454	-0.67609	1.07386	1.30076	-0.672798	1.10638	1.2289	-0.697247	1.15975	1.46915	-0.258902	1.14401	0.95071	-0.283012	0.85113	0.506202	-0.349784	1.09249	1.09631	-0.193933	0.9784	1.21198	-0.145956	1.03816	1.05709	-0.168666	0.910009	1.27442	-0.147301	0.889811	1.26703	-0.237182	0.895625	0.283012	-0.256663	0.97651	1.01416	-0.363628	1.16325	0.434496	-0.339693	1.05432	0.458688	-0.291712	0.986348	0.418486	-0.347635	1.13817	0.792925	-0.239395	1.22594	0.736179	-0.250215	1.242	0.594723	-0.265099	0.911616	0.278129	-0.334268	1.05397	1.3777	-0.181652	0.987237	1.39136	-0.20472	0.97147	1.32665	-0.169834
173	1.98	1.12749	1.50739	-0.441528	1.22725	1.40875	-0.388497	1.21966	1.47063	-0.596407	1.14382	0.967234	-0.542796	0.693557	0.145242	-0.396748	1.33138	1.19827	-0.607133	1.18855	1.16471	-0.698869	1.34469	1.13048	-0.630105	1.10143	1.17186	-0.716116	1.06713	1.15234	-0.630657	0.980497	1.02751	-0.457823	0.964231	0.301478	-0.462697	0.900449	0.264092	-0.497044	0.871301	0.202386	-0.430144	1.04869	0.823815	-0.604281	1.10193	0.685445	-0.589217	1.01771	0.575041	-0.563426	0.918185	0.0682076	-0.390036	1.17148	1.35206	-0.673799	1.08457	1.3067	-0.671993	1.11891	1.23568	-0.696491	1.1541	1.47742	-0.259123	1.14655	0.957389	-0.285247	0.875601	0.472202	-0.353302	1.08043	1.11562	-0.196155	0.965201	1.23099	-0.15078	1.02618	1.07653	-0.171118	0.897145	1.29207	-0.153686	0.878833	1.28698	-0.243784	0.951677	0.259651	-0.255907	0.978322	1.01889	-0.364981	1.19589	0.441625	-0.34184	1.08412	0.453399	-0.294323	1.02198	0.402792	-0.348747	1.14432	0.805846	-0.239211	1.23405	0.755348	-0.253061	1.25992	0.614741	-0.268332	0.968201	0.255581	-0.333589	1.04453	1.39174	-0.183808	0.979807	1.40651	-0.210182	0.96089	1.34223	-0.173985
